<?xml version="1.0" encoding="UTF-8"?>
<svg version="1.1" viewBox="0 0 1600 282" width="566" height="100" xmlns="http://www.w3.org/2000/svg">
<path transform="translate(903)" d="m0 0h17l3 3 8 5 8 9v2h103v23l-1 75 9-10 7-8 9-11 13-16 13-18 8-15 2-7 1-13h114l10 3 10 9 1 2v11l-5 13-7 8-9 7 12 1-6 11-7 9-24 26-9 11-8 9-9 12-9 11-12 14-10 14-7 12-1 3 7-3 10-10 7-8 13-13 7-8 9-10 11-12 9-11 9-10 9-11 10-13 4-8 1-7-2-9 43-1h35l-2 13-9 46-3 14 6-5 9-11 11-12 11-14 6-8 3-7 2-14 22-1 53-1h21l-5 4-17 9-10 8-14 12-17 16-11 11-7 8-11 12-8 10-9 11-12 14-13 17-4 6-2 1h-72l-1-2 10-43 4-15-7 6-8 11-12 16-8 16-1 11-47 1-179 1-1-4 3-69 2-15h-3l-2 5-33 44-14 20-4 11-1 9-40 1h-43l2-4 10-8 16-16h2l2-4 10-10 9-11 11-12 9-11 12-14 11-13 9-11 12-14 11-13 4-6h2l1-6-15-14-12-13-6-7-4 1-21 11-33 15-29 13-11 5 1 13-4 10-1 1-9-1-9-2-9-1h-27l-19 3-15 4 4 1 37-4h8l3 3v9l-5 4-12 6-24 11-20 10-19 11-16 11-15 13-15 15-7 8-9 10-14 19-6 12-1 9 5 5 3 1h8l10-3 16-10 13-11 10-9 15-15 9-12 10-19 7-19 4-6 7-6 13-4 5-1h12l6 5 1 2v8l-8 19-8 15-12 16-12 13-14 14-8 7-14 12-18 13-18 10-13 5-5 1h-20l-11-4-9-7-6-10-2-6v-15l3-10 7-13 10-13 13-15 23-23 17-13 18-14 14-9h2v-2l-12-1-8-4-6-7 1-9 5-9 10-10 13-8 20-9 13-4 27-5h24l10 1 17-12 18-13 14-10 17-12 15-11zm265 38-11 8-10 9-16 16-9 11-10 11-9 11-12 14-9 11-13 15-11 14-10 14-10 16-10 18v3l7-1 11-9 31-31 9-11 9-10 9-11 14-17 13-18 7-14v-7l-1-6 8-1 30 1 1-2-8-7-3-5v-8l4-11z" fill="#060405"/>
<path transform="translate(275,63)" d="m0 0h25l47 1 187 2 2 2 6 21 13 36 6 16v2h2l2-6 12-21 13-24 5-10v-7l-3-6v-2h25l64 1-2 4-11 7-11 9-8 8-11 15-25 37-22 33-16 22-6 7h-41l-8-1-3-7-20-64v-2l-2 1-11 24-9 19-3 9-1 6v14h-75l2-4 14-15 10-13 12-19 13-24 8-16 8-17 5-18-1-8-4-2h-5l-2 5-14 25-9 17h-3l-9-7-10-4-9-2-11-1-50-1-2 9 68 1-2 5-10 19-8 14-3 2h-69l-2 11 44-1 20-2 15-4 10-5h3l-1 5-10 22-11 27-13 1h-56l-116-1 5-5 14-12 8-8 9-13 12-22 24-48 7-18 1-9z" fill="#0081C6"/>
<path transform="translate(9)" d="m0 0h12l-3 2 12 1 76 1 148 3 8 4 6 8 1 3v15l-6 18-12 27-8 15-7 9-8 6-3 2 1 15-5 17-8 19-10 20-9 12-7 7-7 3-6 1h-42l-24-1h-108l5-6 13-13 11-15 13-24 17-34 15-33 11-24 6-14v-3l-37-17-30-13-12-5-4-4zm149 52-6 14-8 21 1 3h34l15-34v-3l-22-1zm-30 77-5 10-7 18-2 6 15 1h15l8-16 7-15v-3z" fill="#0081C6"/>
<path transform="translate(1458,72)" d="m0 0h111l10 2 6 4 4 5 1 2v7l-5 10-12 16-14 17-24 28-12 13-17 17-14 10-8 3-117 3h-8l-7-2-5-6-1-2v-13l5-12 7-10 8-10 12-14 10-11 7-8 14-15 9-9 11-9 10-7 16-8zm15 43-8 10-12 16-14 17-3 4v2h18l6-2 10-11 9-11 11-12 7-8 3-5z" fill="#0082C7"/>
<path transform="translate(910,3)" d="m0 0 11 2 9 7 4 6 2 8-17 10-4 2-3 3-30 14-27 12-11 5 1 13-4 10-1 1-9-1-9-2-9-1h-27l-19 3-15 4 4 1 37-4h8l3 3v9l-5 4-12 6-24 11-20 10-19 11-16 11-15 13-15 15-7 8-9 10-14 19-6 12-1 9 5 5 3 1h8l10-3 16-10 13-11 10-9 15-15 9-12 10-19 7-19 4-6 7-6 13-4 5-1h12l6 5 1 2v8l-8 19-8 15-12 16-12 13-14 14-8 7-14 12-18 13-18 10-13 5-5 1h-20l-11-4-9-7-6-10-2-6v-15l3-10 7-13 10-13 13-15 23-23 17-13 18-14 14-9h2v-2l-12-1-8-4-6-7 1-9 1-3h3l2-4 6-7 15-10 19-9 20-6 18-3 42-1 16-13 24-16 17-12 18-12z" fill="#CD622C"/>
<path transform="translate(989,25)" d="m0 0h46v110l11-14 9-11 26-32 9-11 10-13 8-13 4-15h62l-4 4-10 7-14 11-13 13-9 11-14 17-9 11-12 14-8 10-13 16-8 10-11 13-15 20-9 15-2 6-2 1h-38l1-22 4-65v-13l-11 14-14 19-10 13-10 14-11 15-8 13-4 8-3 5-58 2 2-4 15-15 7-8 13-14 9-11 14-15 7-8 11-13 11-14 13-15 8-10 9-11 7-8-6-7-8-8-7-8-13-13z" fill="#0081C7"/>
<path transform="translate(475,74)" d="m0 0h55l8 26 13 36 9 29 2-2 8-16 9-16 12-22 10-19 2-8v-8h44l17 1-5 5-12 11-9 11-13 17-13 20-15 24-13 19-15 20-2 1-22 1h-21l-7-23-13-38-5-18h-2l-6 9-13 24-9 19-5 16-2 9h-51l6-8 8-10 13-20 14-24 8-16 9-21 6-18-1-10z" fill="#0081C7"/>
<path transform="translate(1411,77)" d="m0 0h2l-1 3-8 7-13 12-8 7-15 14-4 4h-2v2l-19 19-7 8-9 9-9 11-10 12-10 14-3 4h-61l4-19 8-36 3-15v-3l-12 13-9 11-11 13-11 15-9 17-2 5h-51l6-7 36-39 9-11 12-14 9-11 11-14 10-16 2-13 6-1h56l-2 13-10 54-1 8v14l10-14 11-13 9-11 11-13 9-11 8-11 8-16z" fill="#0082C7"/>
<path transform="translate(275,63)" d="m0 0h25l47 1 187 2 2 2 6 21 13 36 6 16v2h2l2-6 12-21 13-24 5-10v-7l-3-6v-2h25l64 1-2 4-11 7-11 9-8 8-11 15-25 37-22 33-16 22-6 7h-41l-8-1-3-7-20-64v-2l-2 1-11 24-9 19-3 9-1 6v14h-75l2-4 14-15 10-13 12-19 13-24 8-16 8-17 5-18-1-8-4-2h-5l-2 5-14 25-9 17h-3l-9-7-10-4-9-2-11-1-50-1-2 9 68 1-2 5-10 19-8 14-3 2h-69l-2 11 44-1 20-2 15-4 10-5h3l-1 5-10 22-11 27-13 1h-56l-116-1 5-5 14-12 8-8 9-13 12-22 24-48 7-18 1-9zm9 5 1 6v9l-6 16-33 66-10 16-8 10-10 9v2h161l16-36v-3l-5 2-9 3-22 1-38 1h-15l4-11 4-10h15l36 1h18l6-9 8-15 3-4v-2l-35-1h-34l10-20h36l26 2 15 4 11 5 4-1 8-16 10-18v-2l-157-5zm191 6-1 2 1 9-7 21-12 27-16 28-18 27-9 11-2 3h51l5-20 8-18 12-23 9-15 2-2 2 3 5 18 12 36 7 23h21l22-1 5-5 15-20 15-23 15-24 11-16 14-18 11-12 11-9v-1l-17-1h-44v8l-3 10-12 23-12 22-9 16-6 12-2-3-9-29-13-36-7-23z" fill="#060406"/>
<path transform="translate(1143,78)" d="m0 0h74l-3 5-11 13-8 10-13 16-10 11-11 14-11 13-9 11-9 13-12 20-69 1 2-4 18-18 7-8 11-13 11-14 24-28 11-14 7-11 2-7z" fill="#0082C7"/>
<path transform="translate(741,121)" d="m0 0 9 1 10-1-1 5-3 3-24 12-19 12-13 10-12 11-14 14-9 11-14 18-11 19-2 5v7l2 5 5 3h18l14-7 17-13 12-11 8-7 10-11 9-13 8-15 6-16 5-10 5-6 12-5 21-2 2 2-3 1 4 1-1 5-7 16-7 14-10 15-8 10-12 14-11 11-11 9-12 10-15 10-16 9-10 4-7 2h-15l-17-3-4-2-3-5-5-8-2-7v-11l4-13 6-7 5-9 12-14 4-5 8-7 10-10 11-9 15-13 14-11 14-9 14-8z" fill="#CD622C"/>
<path transform="translate(82,23)" d="m0 0h7l10 3 31 3 2 1-2 10-15 33-7 15-11 25-9 24-8 21-8 19-5 10 3-1 20 1 12 2 21 2 18 2v2h8l1 1h11l6 4-1 2h-115l-36-1 6-8 7-8 9-14 14-26 11-22 10-22 12-26 16-34 1-3-5-1-3-3-4-2v-3l-5-1-3-2z" fill="#006EBC"/>
<path transform="translate(1447,84)" d="m0 0 2 1 1 1 6 3 1 8-4 7-5 6h-2l-2 4-4 7-5 5-6 7-9 11-10 11h-2l-2 4-6 8-6 9-1 6 1 2 12 1 20-1 9-2 27 1 7 1 2 4v3h2l1 2v6l-2 3-21 1h-51l-39-1-5-4-3-7 1-6 11-19 11-14 9-11 9-10 12-13 7-8 10-10 15-11z" fill="#006EBC"/>
<path transform="translate(9)" d="m0 0h12l-3 2 12 1 76 1 148 3 8 4 6 8 1 3v15l-6 18-12 27-8 15-7 9-8 6-3 2 1 15-5 17-8 19-10 20-9 12-7 7-7 3-6 1h-42l-24-1h-108l5-6 13-13 11-15 13-24 17-34 15-33 11-24 6-14v-3l-37-17-30-13-12-5-4-4zm31 8 2 4 37 17 19 9h3l-15 33-13 27-7 16-16 33-14 26-9 13-11 13-1 2 38 1h113l13-1 8-5 7-8 8-13 8-17 7-17 4-14v-6l-6-11 6-1 8-6 8-10 6-10 11-24 8-21 1-11-3-7-7-6-6-2-10-1-57-2-57-1z" fill="#070507"/>
<path transform="translate(293,80)" d="m0 0 16 1 2-1-1 7-7 15-11 25-11 29-11 28-1 2 26 1 24 2 16 2 18 2 7 2 1 5 14 1v1h-157l2-4 8-7 9-11 12-21 25-50 2 1 7-16 3-5 2-5z" fill="#006EBC"/>
<path transform="translate(603,74)" d="m0 0h44l17 1-5 5-12 11-9 11-13 17-13 20-15 24-13 19-15 20-2 1-22 1h-21l-7-23-13-38-2-8v-5l2 3 2 5 2 1v7l4 11 4-1 1 9 6 15 1 2h2l4 13 5 2 8-2h12l10-13 6-8 1-3h2l2-6 7-12 3-5 8-13 3-7 3-4 6-11 4-10 2-7v-7h-4l-4 6-2 2-6 10-1 4-2 5-2 2-1 3-3 1-5 10-4 7-6 11h-2l-1 2 1-5 9-16 12-22 10-19 2-8z" fill="#0082C7"/>
<path transform="translate(1458,72)" d="m0 0h111l10 2 6 4 4 5 1 2v7l-5 10-12 16-14 17-24 28-12 13-17 17-14 10-8 3-117 3h-8l-7-2-5-6-1-2v-13l5-12 7-10 8-10 12-14 10-11 7-8 14-15 9-9 11-9 10-7 16-8zm0 6-20 11-12 9-10 9-9 9-7 8-11 12-11 13-15 20-9 16-1 6 4 8 4 3 39 1h54l18-1 13-4 16-10 11-9 16-16 9-11 11-14 14-17 13-18 5-10v-7l-3-5-9-3z" fill="#050305"/>
<path transform="translate(145,33)" d="m0 0h42l51 1-1 5-13 27-11 23-7 15-5-2-10-5-6-2v-3h-2v3l-18-1h-26l1-7 11-28 3-1 1-6 2-4h45l-4-2-8-1-9 2-19-1v-2h-7l-6-3-3-3zm13 19-6 14-8 21 1 3h34l15-34v-3l-22-1z" fill="#006EBC"/>
<path transform="translate(608,87)" d="m0 0 5 2v9l-3 8-5 10v2h-2l-2 6-5 7-3 7-9 15-8 14-2 4h-2l-1 4-12 16-5 5h-11l-9 2-5-3-3-10v-3l-4-1-6-16v-6l-2-2h-3l-4-11v-6l-3-3-2-5h-1l-2-7-2-2v-4h2l4-21 3-9 1 4h2l7 20 6 17 4 9 10 31 2 6 3 11 6 3 5-1 6-12 1-7v-5h2l7-14 4-1 1-4 6-10 7-14 4-1 1-5h2l1-5 3-8 4-6 4-5z" fill="#006FBD"/>
<path transform="translate(1521,98)" d="m0 0h20l1 5-6 10-6 8-11 14-5 3-2 3h-2l-2 4-8 8-6 8-7 8-4 2-5-1-3-5 3-6 3-3 4-8h2v-2l-4 2-5 4-8 10-7 8h-37l2-5 21-27 12-16 12-14h39l1-6 6-1 2-2zm-48 17-8 10-12 16-14 17-3 4v2h18l6-2 10-11 9-11 11-12 7-8 3-5z" fill="#006EBC"/>
<path transform="translate(183,108)" d="m0 0h13l6 1-3 9-8 16-10 19-6 11-7 15-6-2-12-6 1-10-4 8-40-1 4-11 9-25 4-8 2 1 43-1v-4l-16-2h-33l-3-4v-3l63-2zm-55 21-5 10-7 18-2 6 15 1h15l8-16 7-15v-3z" fill="#006FBC"/>
<path transform="translate(986,46)" d="m0 0 6 2 6 4 1 5-3 5-2 8-9 10-10 14-7 10h-2l-2 4-9 10-3 5h-2l-1 5-6 7h-2l-2 4-10 11-1 2h-2l-2 4-3 5-2 1-4 8h-2l-2 5-3 1-2 4-3 1-2 4-2 3h-2v2l-11 7h-6l-3-1v-6l5-5 1-4 13-14 9-11 14-15 7-8 11-13 11-14 13-15 8-10 9-11 7-8v-2l3-1-2-2 1-3-2-6z" fill="#006FBC"/>
<path transform="translate(1e3 62)" d="m0 0 1 2 1 7 1 3 1 12-1 2h2v67l-2 24 1 4v9l-2 7-5 2h-6l-6-4-2-24v-41l1-14v-15l6-13 9-27z" fill="#006EBC"/>
<path transform="translate(1241,91)" d="m0 0h2v2l5 1 1 5-2 7-1 5-7 12h-2v2h-2v2l-7 6-4 8-7 9-2 4h-2v3l-5 2v2l-5 5-8 7-5 6-6 12-3 3-6 3-11 1-5-2v-5h2l2-4-5 4-4 3 2-4 9-9 7-8 14-15 9-11 12-14 9-11 11-14 10-16z" fill="#006FBC"/>
<path transform="translate(1116,33)" d="m0 0 4 3 3 1v7l-6 16-2 3h-2v2h-2l-1 4-4 4-4 6-3 5-6 7-2 1-3 5-4 5h-2l-2 4-7 8-1 3h-2v2h-2l-2 5-2 1-3 5-8 10h-2l-2 4-9 6-4 2h-3v2l-3 1-1-4 3-7v-3l1-31h1l1 25 11-14 9-11 26-32 9-11 10-13 3-5 3-1 5-7h2l2-5z" fill="#006EBC"/>
<path transform="translate(1264,94)" d="m0 0 8 1 6 4v10l-6 29-3 16-3 11-1 5v16l1 7-5 4-13 1-7-3v-10l1-6v-4h2l1-10 2-5v-9l-1-3 3-15 1-8 3-8 6-18z" fill="#006EBC"/>
<path transform="translate(1147,90)" d="m0 0 2 1 1-1 4 2 3 9-1 6-6 10-5 5-7 9-5 6h-2l-4 8h-2l-2 5-3 1-1 4-7 10-9 12h-2v2h-2l-2 4-4 5-3 6-5 3-12 1h-4v-2h-2l2-6h2l-1-3h2l2-5 3-2h3l1-4 3-3h2v-3l4-4 4-6 4-4 3-5h2l1-4 4-4h3v-3h2l1-5h2l2-5 4-4 2-1 1-3h2v-6l11-14 4-5h3z" fill="#006FBC"/>
<path transform="translate(1206,26)" d="m0 0h10l9 3 5 5 1 2v9l-7 12-7 7-8 4h-19l-13-3-6-4-1-2v-10l5-8 7-6 15-7z" fill="#0081C6"/>
<path transform="translate(698,108)" d="m0 0 3 3 2 5 13 3h24l-1 3-23 13-16 12-14 12-13 11-12 11-13 13-10 11-9 15-4 4-4 13v11l4 11 5 6 2 4 7 1 12 2h15l13-4 17-9 15-10 14-11 10-9 8-7 8-8 9-11 10-13 9-15 8-16 6-15-6-1v-1h6l2 3v8l-8 19-8 15-12 16-12 13-14 14-8 7-14 12-18 13-18 10-13 5-5 1h-20l-11-4-9-7-6-10-2-6v-15l3-10 7-13 10-13 13-15 23-23 17-13 18-14 14-9h2v-2l-12-1-8-4-6-7z" fill="#2F150D"/>
<path transform="translate(476,81)" d="m0 0h4 7l4 1-2 11-4 9-1 4h-2l-2 6-7 13-5 7h-2l-1 4-8 14-3 7h-2l-3 9h-2v5l-3 7-1 8-1 7-7 4h-10l-4-4 4-9 13-20 14-24 8-16 9-21 6-18z" fill="#006FBD"/>
<path transform="translate(803,102)" d="m0 0h1v6l-5 4-12 6-24 11-20 10-19 11-16 11-15 13-15 15-7 8-9 10-14 19-6 12-1 9 5 5 3 1h8l10-3 16-10 13-11 10-9 15-15 9-12 10-19 7-19 4-6 7-6 13-4 5-1h12l2 1v2l-21 2-12 5-6 8-8 20-8 16-7 11-12 14-8 8-8 7-12 10-16 11-9 4h-18l-6-4-2-5v-7l8-16 9-13 11-14 12-14 19-19 14-11 19-12 23-12 26-12 19-10 5-4z" fill="#110B0C"/>
<path transform="translate(1352,93)" d="m0 0h3l-1 13-3 7-11 16-8 9h-2l-2 4-4 2-2 4-4 4h-2l-2 4-4 5-6 5-10 10h-4l-2-5h-2v-12h1l1 8 10-14 11-13 9-11 11-13 9-11 6-8z" fill="#006FBD"/>
<path transform="translate(1473,108)" d="m0 0h19l21 1-6 9-10 11-9 11-14 17-9 11-2 2h-37l2-5 21-27 12-16zm0 7-8 10-12 16-14 17-3 4v2h18l6-2 10-11 9-11 11-12 7-8 3-5z" fill="#040305"/>
<path transform="translate(778,148)" d="m0 0 4 2-7 17-11 21-10 13-9 10-4 5h-2v2l-8 7-6 1 1-5 6-9 3-5 5-8 1-3h2l1-5 6-15 6-12 4-5 3-2h5l1-3 5-4z" fill="#C15321"/>
<path transform="translate(284,68)" d="m0 0 45 1 98 3 24 1-2 5-15 28-2 4-4-1v-2h3l1-5 6-16 1-7-7-1-28-1h-33l-47-2-18-2h-19l-1 2-2-3z" fill="#0096DA"/>
<path transform="translate(789,68)" d="m0 0h13l9 1h19l2 9-2 2h-7l-6-1-24 3-15 2h-12l-6 1h-13l1-2 14-7 13-6z" fill="#C15321"/>
<path transform="translate(913,12)" d="m0 0 6 2 2 1v2l3 1-2 4-7 5-12 5-18 10-19 9-15 7-5-1 3-5 4-3h3v-2l10-7 4-3h3v-2l9-5 16-10 10-6z" fill="#C15321"/>
<path transform="translate(698,108)" d="m0 0 3 3 2 5 13 3h24l-1 3-23 13-16 12-14 12-13 11-12 11-13 13-10 11-9 15-4 4-5 15-1 13-2-1v-15l3-10 7-13 10-13 13-15 23-23 17-13 18-14 14-9h2v-2l-12-1-8-4-6-7z" fill="#0D0808"/>
<path transform="translate(124,124)" d="m0 0 2 1 44-1-2 6-6 10-12 23-3 6-40-1 4-11 9-25zm4 5-5 10-7 18-2 6 15 1h15l8-16 7-15v-3z" fill="#090607"/>
<path transform="translate(157,48)" d="m0 0h25l16 1 5 1-8 16-11 26-1 3-18-1h-26l1-7 11-28 3-1 1-6zm1 4-6 14-8 21 1 3h34l15-34v-3l-22-1z" fill="#05070C"/>
<path transform="translate(780,88)" d="m0 0h39l17 4 5 2-1 2-9-1-9-2-9-1h-27l-19 3-15 4 4 1 37-4h8l2 1v2l-44 5-22 3h-7l1-4 14-7 21-6z" fill="#0F090A"/>
<path transform="translate(328,134)" d="m0 0h22l9 7-1 6-2 2h-27l-7-2-2-2-10-1-5-4v-5z" fill="#006FBC"/>
<path transform="translate(1443,86)" d="m0 0h3v2l-5 2v2h-2v2l-7 3-8 8-3 1-1 3h-2l-2 5-9 9-2 3h-2l-1 3h-2l-1 3-4 2-1 4-3 1-3 6-3 3h-2v2l-5 5-5 8-4 1-1 6h-2l-2 6-1 4h-2l-1 10 2 6 6 2 1 3h33v1h-41l-5-4-3-7 1-6 11-19 11-14 9-11 9-10 12-13 7-8 10-10 15-11z" fill="#007DC3"/>
<path transform="translate(1197,28)" d="m0 0h9l1 5h-2l-1 4-3 5-6 4-4 3h-2v2l-14 9-4 1-1-2v-10l5-8 7-6z" fill="#006FBC"/>
<path transform="translate(776,138)" d="m0 0h12l2 1v2l-21 2-12 5-6 8-8 20-8 16-7 11-12 14-8 8-8 7-12 10-10 7-4-1 1-3 13-9 15-13 18-18 9-12 10-19 7-19 4-6 7-6 13-4z" fill="#0D090B"/>
<path transform="translate(895,6)" d="m0 0 2 1-3 5-44 30-11 8-14 11-42 1-18 3-20 6-21 10-14 10-7 9-2-1 4-6 9-9 13-8 20-9 13-4 27-5h24l10 1 17-12 18-13 14-10 17-12z" fill="#180F0E"/>
<path transform="translate(145,33)" d="m0 0h42l51 1-1 5-2 1-3-3-23 4-48-1-11-3-5-3z" fill="#0066B2"/>
<path transform="translate(144,110)" d="m0 0h34v2h2l-1 3-9 3h-50l-3-4v-3z" fill="#0066B2"/>
<path transform="translate(366,85)" d="m0 0h16l8 2 4 2v6l-1 2-29 1 1-4-7-2-5-2 1-2z" fill="#006FBD"/>
<path transform="translate(763,108)" d="m0 0h9l3 1-1 5-6 5h-3v6l-5 2-3-1 2-2v-2l-12 1-8-1 1-3-3-1h4l1-4 8-3z" fill="#C15321"/>
<path transform="translate(1094,72)" d="m0 0h6l1 4-2 1-3 6-4 6-11 13-6 7h-2l-1 3h-5v-6l9-10 4-7 5-5 3-5z" fill="#0066B2"/>
<path transform="translate(698,108)" d="m0 0 3 3 2 5 13 3h24l-1 3-23 13-16 12-9 8-2-2 9-8 2-4 16-11 6-4h2v-2l-12-1-8-4-6-7z" fill="#0D0A0C"/>
<path transform="translate(625,115)" d="m0 0 1 3-7 10-24 38-11 16-15 20-4-1h2l1-3h2l2-4 3-5 5-10 4-5 9-13 5-8 2-2 7-12h2l2-4 4-7z" fill="#0095D9"/>
<path transform="translate(787,142)" d="m0 0h6l2 3v8l-8 19-8 15-12 16-4 2 2-6h2l2-4 2-7 8-13 8-16 6-15-6-1z" fill="#130A09"/>
<path transform="translate(661,205)" d="m0 0 1 2-14 19-6 12-1 9 5 5 3 1h8l10-3 5-3 5 2-5 4-9 4h-18l-6-4-2-5v-7l8-16 9-13 4-5z" fill="#130A0A"/>
<path transform="translate(1126,117)" d="m0 0h2l-1 5h-2v5l-3-1-1 3-2 2-3 4h-2l-1 5h-2v3h-3l-2 4h-2l-1 4h-2l-2 5-7 8-4 6h-2v3l-5 4-1 3-8 3 2-4 10-11 27-33 13-15z" fill="#007EC4"/>
<path transform="translate(475,74)" d="m0 0h55l5 16v5l-2-3-7-10v-2l-3-1-27-1v-2l-10 1v1l-8 1-2 1-2-5z" fill="#0099DC"/>
<path transform="translate(952,101)" d="m0 0h2l-2 6-2 1v3h-3l-1 3-5 5-3 4-3 6-5 2v2l-3 3h-2v3h-2l1 3-5 5-3 5-5 3-7 6-2 3h-2v3h-2v3l-5 5-3 1v2l-4 4-3-1 13-14 9-11 14-15 7-8 11-13 11-14z" fill="#007FC5"/>
<path transform="translate(96,49)" d="m0 0h2l-3 9-6 15-4 6-6 18h-2l-1 6-2 3-1 6h-2l-1 5-4 8-4 2-1 5-2 3h-2l2-6 13-28 12-26z" fill="#007FC5"/>
<path transform="translate(776,138)" d="m0 0h12l2 1v2l-21 2-12 5-6 8-8 20-8 16-4 1 2-5 9-19 5-14 4-6 7-6 13-4z" fill="#130B0B"/>
<path transform="translate(895,6)" d="m0 0 2 1-3 5-44 30-11 8-14 11h-13l-3-2h12l17-12 18-13 14-10 17-12z" fill="#140C0B"/>
<path transform="translate(989,25)" d="m0 0h46v16l-1 24-3-1v-23l-2-10-2-3-49-1v-1z" fill="#008ED3"/>
<path transform="translate(274,112)" d="m0 0 1 4-5 10-3 9-2 5h-2l-2 6-1 2h-2l-1 6-1 3h-2v3h-2l-1 5-5 5-4 6-1-3 9-16 22-44z" fill="#007FC5"/>
<path transform="translate(1366,167)" d="m0 0 2 3h-2l-2 6-1 4h-2l-1 10 2 6 6 2 1 3h33v1h-41l-5-4-3-7 1-6 10-17z" fill="#007FC5"/>
<path transform="translate(901,42)" d="m0 0 1 2-3 3-26 12-20 9-9 4 1 13-2 5h-1l-1-12-3-4v-3l21-9 30-15z" fill="#34180D"/>
<path transform="translate(1143,78)" d="m0 0h74l-3 5-2 3h-2l-3-5h-64z" fill="#008CD2"/>
<path transform="translate(702,162)" d="m0 0 1 3-15 14-10 10-7 8-8 9-4 1 2-4 11-13 7-8 17-17z" fill="#120908"/>
<path transform="translate(347,120)" d="m0 0h53l-2 5-8 14-4 6-1-2 3-7 1-10-1-3h-17l-1-1-23-1z" fill="#0098DB"/>
<path transform="translate(603,74)" d="m0 0h44l17 1-5 5-12 11-9 11-3 2 2-4 6-8 9-9v-3l-9-2v-1l-13-1h-26z" fill="#0095D9"/>
<path transform="translate(261,30)" d="m0 0h1v8l-6 16-8 18-8 16-4 6-2-1 4-8 1-4 6-12h2l1-6h2l1-6 2-5h2v-7l3-4z" fill="#0095D9"/>
<path transform="translate(289,128)" d="m0 0h1l-1 7-11 29-5 13h-2l1-9 5-12 1-7 2-5 7-14z" fill="#0066B2"/>
<path transform="translate(486,138)" d="m0 0 1 3-15 29-8 20-1-4 5-18 5-12 7-9z" fill="#0093D8"/>
<path transform="translate(1245,78)" d="m0 0h56l-2 13-2 1v-6l-3-3v-3h-54v-1z" fill="#008BD1"/>
<path transform="translate(231,188)" d="m0 0 2 1 1 4 2 4 3 1v2h15v1h-35l1-3 8-7z" fill="#0081C6"/>
<path transform="translate(1411,77)" d="m0 0h2l-1 3-6 5-4-2-3-2-42-1-2-1-1 3v-4z" fill="#009ADD"/>
<path transform="translate(1217,129)" d="m0 0 2 1-2 6-4 7-2 5-4 4-6 2-1-4 2-4 2-1 1-3 2-1 4-6h2l1-3h2z" fill="#0066B2"/>
<path transform="translate(595,102)" d="m0 0 2 1-1 7-2 2-1 4-2 2-1 3-3 1-5 10-4 7-6 11h-2l-1 2 1-5 9-16 12-22z" fill="#0080C6"/>
<path transform="translate(1082,77)" d="m0 0v3l-2 4-8 9-1 4-3 3h-2v2l-3 3-1 3-2 3h-3l-2 4h-2v2l-3-1 11-13 7-9 13-16z" fill="#007CC3"/>
<path transform="translate(393,163)" d="m0 0h2l-1 5-7 16-2 1v-11l-1-3-9-1v-1l13-3z" fill="#0093D8"/>
<path transform="translate(966,130)" d="m0 0 1 3-8 10-13 18-5 7h-2l1-6 5-6 2-1 3-6 5-7 3-3h2v-3l5-4z" fill="#0092D6"/>
<path transform="translate(853,36)" d="m0 0 2 1-5 5-11 8-14 11h-13l-3-2h12l17-12z" fill="#151011"/>
<path transform="translate(865,59)" d="m0 0m-2 1 3 1-2 2-20 9 1 13-2 5h-1l-1-12-3-4v-3l21-9z" fill="#110A0A"/>
<path transform="translate(740,70)" d="m0 0 4 1-16 8-14 9-7 6-4 6-2-1 4-6 9-9 13-8z" fill="#150D0D"/>
<path transform="translate(26,187)" d="m0 0h2v7l1 3 2 1v2l-3 1h-13l6-8z" fill="#007FC5"/>
<path transform="translate(502,130)" d="m0 0 2 3 2 5 2 1v7l4 11 4-1 1 7-3 4-2-1-9-27z" fill="#007EC4"/>
<path transform="translate(626,260)" d="m0 0 9 6 12 4h26l-3 2-4 1h-15l-17-3-4-2-3-5z" fill="#C15321"/>
<path transform="translate(793,96)" d="m0 0h8l2 1v2l-29 3h-5l4-3 2-1z" fill="#120C0E"/>
<path transform="translate(1247,149)" d="m0 0h1v11l-2 7-2 8h-2l-1 3-1-3 5-22z" fill="#007DC4"/>
<path transform="translate(672,247)" d="m0 0 5 2-5 4-9 4h-18v-1l15-1 3-1v-2z" fill="#25100A"/>
<path transform="translate(190,44)" d="m0 0 10 2 3 3h-21l-2-2 3-2z" fill="#007DC4"/>
<path transform="translate(96,49)" d="m0 0h2l-3 9-6 15-4 6-1 3-3 1 2-6 11-23z" fill="#007FC5"/>
<path transform="translate(865,202)" d="m0 0 6 1 2 1 19 1-3 2-25 1-3-2z" fill="#0090D5"/>
<path transform="translate(1150,26)" d="m0 0h24l-4 4-5 3-2-1-1-4h-12z" fill="#0087CE"/>
<path transform="translate(803,102)" d="m0 0h1v6l-5 4-10 5h-2l2-5 11-6z" fill="#100705"/>
<path transform="translate(905,156)" d="m0 0 2 2-5 6h-2v3h-2v3l-5 5-3 1v2l-4 4-3-1 13-14z" fill="#007CC3"/>
<path transform="translate(661,205)" d="m0 0 1 2-14 19-2 2v-4l7-11 5-6z" fill="#100D0F"/>
<path transform="translate(952,101)" d="m0 0h2l-2 6-2 1v3h-3l-1 3-10 10-3 2 2-4 11-13z" fill="#007CC3"/>
<path transform="translate(636,243)" d="m0 0h1l2 9 6 4 18 1-1 2-15 1-8-4-3-6z" fill="#C15321"/>
<path transform="translate(620,227)" d="m0 0h3l-2 10-1 2-1 13-2-1v-15z" fill="#0F0605"/>
<path transform="translate(726,94)" d="m0 0h3l1 3-6 4-2 5-3 1-2-2 1-4z" fill="#C15321"/>
<path transform="translate(52,144)" d="m0 0 1 3-1 4-1 5h-3v6l-5 2-1 2 1-6z" fill="#007DC3"/>
<path transform="translate(583,124)" d="m0 0h2l-1 5-3 5-5 8-4 8h-2l-1 2 1-5 9-16z" fill="#007DC3"/>
<path transform="translate(895,6)" d="m0 0 2 1-3 5-15 10v-3l5-5z" fill="#170D0C"/>
<path transform="translate(123,123)" d="m0 0 46 1v1l-43 1-3-1z" fill="#0066B2"/>
<path transform="translate(286,85)" d="m0 0 1 4-11 22-1-4 9-20z" fill="#007DC4"/>
<path transform="translate(700,242)" d="m0 0 4 1-3 5-4 3h-4l-1 2-3-1 3-1v-2h2v-2z" fill="#C15321"/>
<path transform="translate(987,145)" d="m0 0h1v31l-3 1 1-27z" fill="#0079C1"/>
<path transform="translate(625,115)" d="m0 0 1 3-7 10-6 9h-1v-5z" fill="#0092D6"/>
<path transform="translate(1189,154)" d="m0 0h2l-2 5h-2l-2 4-12 12-2-1 7-7 7-8z" fill="#007CC3"/>
<path transform="translate(740,177)" d="m0 0h2l-2 6-5 9-4 1 2-5 5-10z" fill="#23120C"/>
<path transform="translate(1126,117)" d="m0 0h2l-1 5h-2v5l-3-1-1 3-7 4 2-4z" fill="#007CC3"/>
<path transform="translate(307,88)" d="m0 0 1 3-10 22-2 1 1-7h2l1-6 3-6z" fill="#0067B3"/>
<path transform="translate(740,70)" d="m0 0 4 1-16 8-6 2 1-3z" fill="#100B0C"/>
<path transform="translate(912,36)" d="m0 0m-2 1h2v2l2 1-13 6v-5z" fill="#A14820"/>
<path transform="translate(502,130)" d="m0 0 2 3 2 5 2 1v7l1 8-2-2-5-17z" fill="#007BC2"/>
<path transform="translate(760,63)" d="m0 0 5 1-4 2-17 5-2-2z" fill="#2A1712"/>
<path transform="translate(716,150)" d="m0 0 2 1-9 7-2 4-4 2-3-2 10-8z" fill="#27110B"/>
<path transform="translate(830,53)" d="m0 0m-2 1h2l-1 4-4 3h-13l-3-2h12z" fill="#0C0B10"/>
<path transform="translate(785,114)" d="m0 0 3 1-1 3-11 5h-2v-3z" fill="#190D0B"/>
<path transform="translate(536,99)" d="m0 0 3 3 5 14v5l-2 1-1-5 1-2-2-1-2-5z" fill="#0090D5"/>
<path transform="translate(1210,78)" d="m0 0h7l-3 5-2 3h-2l-3-5z" fill="#0093D7"/>
<path transform="translate(261,30)" d="m0 0h1v8l-6 16-1-4v-5l3-4z" fill="#008FD4"/>
<path transform="translate(865,59)" d="m0 0m-2 1 3 1-2 2-16 7h-3v-2l16-7z" fill="#131116"/>
<path transform="translate(82,82)" d="m0 0 2 2-3 5-2 6-4 2 1-5 4-9z" fill="#0084C9"/>
<path transform="translate(484,94)" d="m0 0 2 2-3 8-4 4-2-2 2-6 4-4z" fill="#0066B2"/>
<path transform="translate(1096,59)" d="m0 0h2l-2 6h-2v3l-8 7-2-1 11-13z" fill="#007CC3"/>
<path transform="translate(701,142)" d="m0 0 4 1-11 9-4 3v-3z" fill="#24100A"/>
<path transform="translate(1197,100)" d="m0 0 1 3-8 9-5 7h-2l2-4 8-10z" fill="#008ED3"/>
<path transform="translate(744,164)" d="m0 0h2l-1 6-3 7-3 1 3-9z" fill="#0D0B0F"/>
<path transform="translate(1244,165)" d="m0 0 2 2-2 8h-2l-1 3-1-3 3-9z" fill="#007BC2"/>
<path transform="translate(776,138)" d="m0 0h12l2 1v2h-11v-2z" fill="#181011"/>
<path transform="translate(966,85)" d="m0 0v3l-2 2-1 4-7 6-2-1z" fill="#007CC3"/>
<path transform="translate(775,98)" d="m0 0h6v1l5 1v1l-17 1 4-3z" fill="#1D100E"/>
<path transform="translate(164,137)" d="m0 0h2v2h-2l-2 5-3 5h-2l2-6 3-5z" fill="#007DC3"/>
<path transform="translate(96,49)" d="m0 0h2l-3 9-2 5-3 1 2-6z" fill="#0079C1"/>
<path transform="translate(770,195)" d="m0 0 1 3-6 7h-2l2-6z" fill="#0E090B"/>
<path transform="translate(47,156)" d="m0 0 1 4v2l-5 2-1 2 1-6z" fill="#007FC5"/>
<path transform="translate(718,149)" d="m0 0 2 1-2 1zm-1 2 1 3-7 5-3-1z" fill="#0D0D11"/>
<path transform="translate(771,139)" d="m0 0h8v2l-12 2 1-3z" fill="#150906"/>
<path transform="translate(842,78)" d="m0 0 3 1-1 9-2 2z" fill="#131319"/>
<path transform="translate(769,191)" d="m0 0 2 2-4 6h-2v2h-2l2-4z" fill="#26110B"/>
<path transform="translate(1095,104)" d="m0 0v3l-8 10h-2l2-4z" fill="#008ED3"/>
<path transform="translate(1381,104)" d="m0 0h2l-2 4-8 7-2-1z" fill="#008DD2"/>
<path transform="translate(280,96)" d="m0 0h1l-1 7-4 8-1-4z" fill="#007AC1"/>
<path transform="translate(253,52)" d="m0 0h2l-1 7-2 5-2-2 1-5z" fill="#0093D7"/>
<path transform="translate(1491,136)" d="m0 0v3l-9 10v-3z" fill="#0077BF"/>
<path transform="translate(895,6)" d="m0 0 2 1-3 5-5 3-2-1 4-5z" fill="#090B11"/>
</svg>
